<?xml version="1.0" encoding="UTF-8" standalone="no"?>
<!-- Created with Inkscape (http://www.inkscape.org/) -->

<svg
   xmlns:dc="http://purl.org/dc/elements/1.1/"
   xmlns:cc="http://creativecommons.org/ns#"
   xmlns:rdf="http://www.w3.org/1999/02/22-rdf-syntax-ns#"
   xmlns:svg="http://www.w3.org/2000/svg"
   xmlns="http://www.w3.org/2000/svg"
   xmlns:sodipodi="http://sodipodi.sourceforge.net/DTD/sodipodi-0.dtd"
   xmlns:inkscape="http://www.inkscape.org/namespaces/inkscape"
   id="svg3355"
   version="1.1"
   inkscape:version="0.91 r13725"
   xml:space="preserve"
   width="1346.4075"
   height="844.97125"
   viewBox="0 0 1346.4075 844.97125"
   sodipodi:docname="eye.svg"><metadata
     id="metadata3361"><rdf:RDF><cc:Work
         rdf:about=""><dc:format>image/svg+xml</dc:format><dc:type
           rdf:resource="http://purl.org/dc/dcmitype/StillImage" /><dc:title></dc:title></cc:Work></rdf:RDF></metadata><defs
     id="defs3359"><clipPath
       clipPathUnits="userSpaceOnUse"
       id="clipPath3369"><path
         d="m 0,0 1500,0 0,1500 L 0,1500 0,0 Z"
         id="path3371"
         inkscape:connector-curvature="0" /></clipPath><radialGradient
       fx="0"
       fy="0"
       cx="0"
       cy="0"
       r="1"
       gradientUnits="userSpaceOnUse"
       gradientTransform="matrix(1204.005,0,0,-1204.005,750,750)"
       spreadMethod="pad"
       id="radialGradient3377"><stop
         style="stop-opacity:1;stop-color:#e6e5e5"
         offset="0"
         id="stop3379" /><stop
         style="stop-opacity:1;stop-color:#e6e5e5"
         offset="0.441176"
         id="stop3381" /><stop
         style="stop-opacity:1;stop-color:#e6e5e5"
         offset="0.73385716"
         id="stop3383" /><stop
         style="stop-opacity:1;stop-color:#cccbcb"
         offset="0.848039"
         id="stop3385" /><stop
         style="stop-opacity:1;stop-color:#cccbcb"
         offset="1"
         id="stop3387" /></radialGradient><clipPath
       clipPathUnits="userSpaceOnUse"
       id="clipPath3395"><path
         d="m 0,1500 1500,0 L 1500,0 0,0 0,1500 Z"
         id="path3397"
         inkscape:connector-curvature="0" /></clipPath></defs><sodipodi:namedview
     pagecolor="#ffffff"
     bordercolor="#666666"
     borderopacity="1"
     objecttolerance="10"
     gridtolerance="10"
     guidetolerance="10"
     inkscape:pageopacity="0"
     inkscape:pageshadow="2"
     inkscape:window-width="1440"
     inkscape:window-height="852"
     id="namedview3357"
     showgrid="false"
     fit-margin-top="0"
     fit-margin-left="0"
     fit-margin-right="0"
     fit-margin-bottom="0"
     inkscape:zoom="0.34666667"
     inkscape:cx="792.33837"
     inkscape:cy="405.9436"
     inkscape:window-x="0"
     inkscape:window-y="0"
     inkscape:window-maximized="1"
     inkscape:current-layer="g3393" /><g
     id="g3363"
     inkscape:groupmode="layer"
     inkscape:label="eyes-and-business-5"
     transform="matrix(1.25,0,0,-1.25,-260.54625,1379.8683)"><g
       id="g3365"><g
         id="g3367"
         clip-path="url(#clipPath3369)" /></g><g
       id="g3391"><g
         id="g3393"
         clip-path="url(#clipPath3395)"><g
           id="g3399"
           transform="translate(747,427.9176)"><path
             d="m 0,0 c -110.324,0 -218.112,30.343 -311.711,87.749 -90.93,55.769 -165.468,134.967 -215.557,229.029 l -11.295,21.211 11.295,21.211 c 50.089,94.062 124.627,173.259 215.557,229.029 93.599,57.405 201.387,87.748 311.711,87.748 110.324,0 218.112,-30.343 311.711,-87.748 C 402.64,532.459 477.179,453.262 527.268,359.2 l 11.295,-21.211 -11.295,-21.211 C 477.179,222.715 402.64,143.518 311.711,87.749 218.112,30.343 110.324,0 0,0"
             style="fill:#000000;fill-opacity:1;fill-rule:nonzero;stroke:none"
             id="path3401"
             inkscape:connector-curvature="0" /></g><g
           id="g3403"
           transform="translate(980.6757,765.9063)"><path
             d="m 0,0 c 0,-129.056 -104.62,-233.676 -233.676,-233.676 -129.055,0 -233.675,104.62 -233.675,233.676 0,129.055 104.62,233.676 233.675,233.676 C -104.62,233.676 0,129.055 0,0 Z"
             style="fill:none;stroke:#ffffff;stroke-width:100;stroke-linecap:butt;stroke-linejoin:miter;stroke-miterlimit:10;stroke-dasharray:none;stroke-opacity:1"
             id="path3405"
             inkscape:connector-curvature="0" /></g><g
           id="g3407"
           transform="translate(749.9996,882.8969)"><path
             d="m 0,0 c 0,-59.005 -47.833,-106.839 -106.839,-106.839 -59.005,0 -106.838,47.834 -106.838,106.839 0,59.005 47.833,106.839 106.838,106.839 C -47.833,106.839 0,59.005 0,0"
             style="fill:#ffffff;fill-opacity:1;fill-rule:nonzero;stroke:none"
             id="path3409"
             inkscape:connector-curvature="0" /></g></g></g></g></svg>